<svg id="Layer_1" data-name="Layer 1" xmlns="http://www.w3.org/2000/svg" viewBox="0 0 156.72 156.65"><defs><style>.cls-1{fill:#fff;}</style></defs><title>CIA_logo_white</title><circle class="cls-1" cx="110.78" cy="141.01" r="0.44"/><circle class="cls-1" cx="73.79" cy="150.78" r="0.19"/><circle class="cls-1" cx="76.82" cy="149.55" r="0.32"/><circle class="cls-1" cx="79.07" cy="150.26" r="0.54"/><path class="cls-1" d="M133.77,22.91a78.36,78.36,0,1,0,23,55.41A78.45,78.45,0,0,0,133.77,22.91Zm-3.48,107.33a73.43,73.43,0,1,1,21.51-51.92A73.52,73.52,0,0,1,130.28,130.25Z"/><polygon class="cls-1" points="137.86 91.35 137.06 94.64 138.1 94.9 138.61 92.84 141.75 93.61 141.3 95.44 142.35 95.69 142.8 93.87 145.71 94.58 145.21 96.64 146.26 96.89 147.06 93.6 137.86 91.35"/><path class="cls-1" d="M141.43,97.82a10.29,10.29,0,0,0-4-.79,2,2,0,0,0-1.74,1.46,2.51,2.51,0,0,0-.1,1.27l-1.09.31L134.8,101l1.31-.39a8.25,8.25,0,0,0,3.18,1.67,9.68,9.68,0,0,0,3.9.77,2,2,0,0,0,1.71-1.47,2,2,0,0,0-.36-2.11A7.91,7.91,0,0,0,141.43,97.82Zm2.37,3.41a0.94,0.94,0,0,1-1.09.6,15,15,0,0,1-3.19-.86,14.84,14.84,0,0,1-1.89-.79l0.88-.25L138.19,99l-1.37.38a0.9,0.9,0,0,1,0-.54,0.93,0.93,0,0,1,1.06-.59,13.86,13.86,0,0,1,3,.81,10.35,10.35,0,0,1,2.5,1.11A0.88,0.88,0,0,1,143.81,101.23Z"/><path class="cls-1" d="M134.77,103.13a2,2,0,0,0-1.49,1.29,2.22,2.22,0,0,0-.18,1.82,3.33,3.33,0,0,0,1.69,1.32l6.22,2.94,0.54-1.13-6.22-2.94a2.65,2.65,0,0,1-1-.69,0.79,0.79,0,0,1,0-.79,0.78,0.78,0,0,1,.62-0.53,3.29,3.29,0,0,1,1.31.42l6.05,2.86,0.53-1.13-6.05-2.86A4.16,4.16,0,0,0,134.77,103.13Z"/><path class="cls-1" d="M131.22,108.66l1.4,1.26-1,1.61-1.77-.65L129.23,112l9.17,3.14,0.51-.85-7.06-6.64Zm3.07,2.75q0.74,0.66,1.43,1.23t1.37,1.08q-1.59-.75-3.06-1.3l-1.44-.54,0.78-1.3Z"/><polygon class="cls-1" points="126.46 115.81 127.33 116.44 128.56 114.75 135.35 119.68 136.1 118.65 128.43 113.08 126.46 115.81"/><rect class="cls-1" x="128.12" y="115.71" width="1.28" height="9.47" transform="translate(-46.22 142.14) rotate(-50.16)"/><polygon class="cls-1" points="128.88 125.78 122.83 120.01 121.97 120.91 128.01 126.68 127.03 127.72 127.83 128.49 130.7 125.48 129.9 124.71 128.88 125.78"/><path class="cls-1" d="M118.69,124l-1,.84,2.67,3.07,2.3,5.16,1-.87-1-2-0.16-.3-0.41-.77q-0.14-.28-0.56-0.92a14.67,14.67,0,0,0,1.59,1.1l0.21,0.13,0.18,0.11,1.83,1.15,1-.89-5-2.78Z"/><polygon class="cls-1" points="66.66 9.97 68.07 18.21 69.31 17.99 67.89 9.76 69.3 9.52 69.11 8.42 65.02 9.12 65.21 10.22 66.66 9.97"/><path class="cls-1" d="M73.3,17.48l-0.39-4.62L75,17.34l1.29-.11L74.2,12.78a1.46,1.46,0,0,0,.91-0.84,3.4,3.4,0,0,0,.2-1.66,2.68,2.68,0,0,0-.81-1.91A2.15,2.15,0,0,0,72.91,8l-1.67.14L72,17.59ZM72.81,9.07a1.35,1.35,0,0,1,.53,0,0.81,0.81,0,0,1,.38.26,1.36,1.36,0,0,1,.25.49,3.84,3.84,0,0,1,.13.75,1.72,1.72,0,0,1-.21,1.18,1.35,1.35,0,0,1-1,.43L72.6,9.09Z"/><path class="cls-1" d="M79.89,17.34a2.22,2.22,0,0,0,1.73-.6,3.33,3.33,0,0,0,.5-2.09l0.09-6.88L81,7.76l-0.09,6.88a2.67,2.67,0,0,1-.2,1.22,0.8,0.8,0,0,1-.74.28,0.78,0.78,0,0,1-.74-0.35A3.29,3.29,0,0,1,79,14.43l0.09-6.69-1.25,0-0.09,6.69a4.15,4.15,0,0,0,.33,2.1A2,2,0,0,0,79.89,17.34Z"/><polygon class="cls-1" points="84.87 17.49 86.12 17.62 87 9.31 88.42 9.46 88.54 8.35 84.41 7.91 84.29 9.02 85.76 9.18 84.87 17.49"/><polygon class="cls-1" points="90.99 13.62 92.83 13.98 91.91 18.58 93.16 18.83 95.02 9.54 93.77 9.29 93.04 12.92 91.2 12.56 91.93 8.92 90.68 8.67 88.82 17.96 90.07 18.21 90.99 13.62"/><rect class="cls-1" x="39.82" y="133.45" width="9.47" height="1.28" transform="translate(-92.93 101.49) rotate(-58.28)"/><path class="cls-1" d="M43.72,127.86l-2.39,3.37-0.19.26-0.13.2-0.64,1-0.52.82-0.1.17-0.14.24,0.12-.27,0.09-.19q0.29-.64.52-1.25t0.42-1.2l1.37-4.28-1-.71-5.6,7.64,1,0.76,2.09-2.85q0.46-.63.93-1.4t1-1.74a34.48,34.48,0,0,0-1.23,3.33l-1.21,3.8,1,0.7,5.6-7.64Z"/><path class="cls-1" d="M38,123.29l-7.69,5.84,0.89,0.79,2.78-2.2,0.24-.18,0.28-.23,1.12-.93,0.85-.71,0.14-.12,0.19-.17-0.26.39-0.3.44-0.36.54-0.76,1.16-0.35.54-1.9,3,0.94,0.84L38.79,124Z"/><polygon class="cls-1" points="33.38 118.64 32.6 119.38 34.05 120.92 31.7 123.14 30.41 121.77 29.63 122.51 30.91 123.88 28.73 125.94 27.28 124.4 26.49 125.14 28.82 127.61 35.71 121.1 33.38 118.64"/><path class="cls-1" d="M27.66,120.9a4,4,0,0,0,.21-0.77Q28,119.65,28,119a7.56,7.56,0,0,1,.12-0.76,3.8,3.8,0,0,1,.15-0.54,1.89,1.89,0,0,1,.59-0.75,1.4,1.4,0,0,1,.92-0.35,1,1,0,0,1,.78.42,2.17,2.17,0,0,1,.38,1.28l1-.79a2.2,2.2,0,0,0-.51-1.37,2,2,0,0,0-1.53-.81,2.65,2.65,0,0,0-1.8.64,3,3,0,0,0-.9,1.07,5.66,5.66,0,0,0-.41,1.68q-0.07.59-.14,1a3.6,3.6,0,0,1-.15.61A1.53,1.53,0,0,1,26,121a1.26,1.26,0,0,1-.9.31,1.06,1.06,0,0,1-.79-0.42,1.87,1.87,0,0,1-.32-1.08l-1,.77a2.77,2.77,0,0,0,.55,1.22,2,2,0,0,0,1.49.82,2.56,2.56,0,0,0,1.74-.64A2.82,2.82,0,0,0,27.66,120.9Z"/><polygon class="cls-1" points="28.53 112.35 27.84 111.31 20.87 115.92 20.08 114.73 19.15 115.35 21.44 118.81 22.37 118.19 21.56 116.97 28.53 112.35"/><rect class="cls-1" x="17.21" y="110.09" width="9.47" height="1.28" transform="translate(-51.93 25.38) rotate(-29.67)"/><path class="cls-1" d="M23.68,106.09a2,2,0,0,0,.18-2.22,1.8,1.8,0,0,0-1.66-1.2,9.53,9.53,0,0,0-3.59,1.14l-0.33.16,1,2.1,1-.46-0.47-1,0.17-.08,0.23-.11a5,5,0,0,1,1.79-.56,0.87,0.87,0,0,1,.85.54,0.92,0.92,0,0,1-.31,1.14A11.53,11.53,0,0,1,20,107a12.48,12.48,0,0,1-2.77,1,0.91,0.91,0,0,1-1.08-.46,0.85,0.85,0,0,1,0-.76,1.47,1.47,0,0,1,.27-0.36,4.17,4.17,0,0,1,.49-0.43l-1-.87a3,3,0,0,0-1,1.38A2.17,2.17,0,0,0,15.1,108a2,2,0,0,0,1.61,1.25,8.35,8.35,0,0,0,3.86-1.11A8.71,8.71,0,0,0,23.68,106.09Z"/><path class="cls-1" d="M22,99.64l-1.86.27-0.62-1.77,1.62-.95L20.67,96l-8.27,5.05L12.74,102l9.62-1.19Zm-4.08.61q-1,.15-1.86.31t-1.7.36q1.59-.75,3-1.52l1.33-.77,0.5,1.43Z"/><polygon class="cls-1" points="12.11 96.29 20.2 94.18 19.88 92.97 11.8 95.08 11.44 93.69 10.35 93.98 11.4 98 12.48 97.71 12.11 96.29"/><rect class="cls-1" x="9.75" y="89.85" width="9.47" height="1.28" transform="translate(-16.73 4.33) rotate(-10.82)"/><path class="cls-1" d="M13.74,87.66a9.67,9.67,0,0,0,3.86-1,2,2,0,0,0,.92-2.06,2,2,0,0,0-1.25-1.75,8.18,8.18,0,0,0-3.6-.17,16.26,16.26,0,0,0-2.69.46,3.87,3.87,0,0,0-1.48.72,2,2,0,0,0-.62,1.84,2,2,0,0,0,1.25,1.77A8.29,8.29,0,0,0,13.74,87.66Zm-3-3.07A15.24,15.24,0,0,1,13.94,84a9.46,9.46,0,0,1,2.62,0,0.89,0.89,0,0,1,.8.8,0.91,0.91,0,0,1-.66,1,11.88,11.88,0,0,1-2.84.54,13,13,0,0,1-3,.1A0.9,0.9,0,0,1,10,85.57,0.92,0.92,0,0,1,10.72,84.59Z"/><path class="cls-1" d="M18.06,79.14l-4.13.07H13.37l-1.17.07-1,.07-0.19,0-0.27,0L11,79.35l0.21,0c0.46-.1.9-0.21,1.31-0.32s0.82-.24,1.22-0.37l4.26-1.44V76H8.58v1.28h3.53q0.79,0,1.67-.08c0.59,0,1.26-.13,2-0.23a34.22,34.22,0,0,0-3.42,1L8.58,79.22v1.19h9.47V79.14Z"/><path class="cls-1" d="M54.09,76.9a3.42,3.42,0,0,0,1.25-.28l0.12-2.25a1.64,1.64,0,0,1-1.09.5,1.15,1.15,0,0,1-.56-0.14,1.18,1.18,0,0,1-.42-0.39,2,2,0,0,1-.26-0.63A3.57,3.57,0,0,1,53,72.87a2.77,2.77,0,0,1,.36-1.53,1.15,1.15,0,0,1,1-.55,1.37,1.37,0,0,1,1,.47V69a3,3,0,0,0-1-.19A3.11,3.11,0,0,0,51.84,70a4.42,4.42,0,0,0-.94,3,4.3,4.3,0,0,0,1,3A2.88,2.88,0,0,0,54.09,76.9Z"/><polygon class="cls-1" points="59.23 73.64 60.23 73.64 60.23 76.77 62.33 76.77 62.33 68.99 60.23 68.99 60.23 71.74 59.23 71.74 59.23 68.99 57.13 68.99 57.13 76.77 59.23 76.77 59.23 73.64"/><rect class="cls-1" x="64.08" y="68.99" width="2.1" height="7.78"/><polygon class="cls-1" points="71.6 74.9 70.03 74.9 70.03 68.99 67.92 68.99 67.92 76.77 71.6 76.77 71.6 74.9"/><path class="cls-1" d="M77.3,75.87a4.27,4.27,0,0,0,1-3,4,4,0,0,0-1.14-3.06A3.35,3.35,0,0,0,74.7,69H72.89v7.78h2A3.15,3.15,0,0,0,77.3,75.87ZM75,70.93h0.07a0.87,0.87,0,0,1,.78.54,3.17,3.17,0,0,1,.29,1.47q0,1.89-1.13,1.94v-4Z"/><path class="cls-1" d="M81.91,74V73.53L82,73.81A1.89,1.89,0,0,1,82,74l1,2.77h2.27l-1.56-3.23A2,2,0,0,0,85,71.58a2.45,2.45,0,0,0-.9-2A3.38,3.38,0,0,0,82,69H79.82v7.78h2.09V74Zm0-3.31H82a0.79,0.79,0,0,1,.91.87,1,1,0,0,1-.24.7,0.77,0.77,0,0,1-.6.28H81.92V70.74Z"/><polygon class="cls-1" points="90.6 74.9 88.8 74.9 88.8 73.71 90.42 73.71 90.42 71.95 88.8 71.95 88.8 70.82 90.6 70.82 90.6 68.99 86.7 68.99 86.7 76.77 90.6 76.77 90.6 74.9"/><path class="cls-1" d="M94.17,74.78q0-.46,0-1.07c0-.41-0.05-0.88-0.09-1.43q0.1,0.36.23,0.76t0.3,0.86l1.06,2.86h2V69h-2v1.75q0,0.49.06,1.21t0.18,1.73L95.65,73c-0.09-.27-0.17-0.51-0.24-0.72l-0.19-.55L94.17,69h-2v7.78h2v-2Z"/><polygon class="cls-1" points="102.25 68.99 100.18 68.99 99.23 72.73 100.89 72.73 102.25 68.99"/><path class="cls-1" d="M103.93,72.56a2.6,2.6,0,0,0,.39.52,4.76,4.76,0,0,0,.58.51l0.34,0.27a0.81,0.81,0,0,1,.37.61,0.45,0.45,0,0,1-.17.36A0.67,0.67,0,0,1,105,75a1.71,1.71,0,0,1-1.34-.85v2.44a4.41,4.41,0,0,0,1.59.33,2.33,2.33,0,0,0,1.77-.75,2.65,2.65,0,0,0,.7-1.89,2.3,2.3,0,0,0-.29-1.18,3.26,3.26,0,0,0-1-1l-0.33-.25a0.82,0.82,0,0,1-.43-0.62,0.42,0.42,0,0,1,.16-0.33,0.57,0.57,0,0,1,.4-0.14,1.12,1.12,0,0,1,.64.23,2.23,2.23,0,0,1,.59.63V69.25a3.25,3.25,0,0,0-1.51-.4,2.21,2.21,0,0,0-1.82.91,2.89,2.89,0,0,0-.54,1.64,2.49,2.49,0,0,0,.07.6A2.21,2.21,0,0,0,103.93,72.56Z"/><rect class="cls-1" x="25.35" y="78.98" width="2.1" height="7.78"/><path class="cls-1" d="M31.61,83.9l1.06,2.86h2V79h-2v1.75q0,0.49.06,1.21t0.18,1.73L32.69,83c-0.09-.27-0.17-0.51-0.24-0.72l-0.19-.55L31.2,79h-2v7.78h2v-2c0-.31,0-0.66,0-1.07s-0.05-.88-0.1-1.43q0.1,0.36.24,0.76T31.61,83.9Z"/><polygon class="cls-1" points="37.04 86.76 39.14 86.76 39.14 80.84 40.34 80.84 40.34 78.98 35.88 78.98 35.88 80.84 37.04 80.84 37.04 86.76"/><polygon class="cls-1" points="45.45 84.89 43.64 84.89 43.64 83.7 45.26 83.7 45.26 81.94 43.64 81.94 43.64 80.81 45.45 80.81 45.45 78.98 41.54 78.98 41.54 86.76 45.45 86.76 45.45 84.89"/><polygon class="cls-1" points="50.68 84.89 49.1 84.89 49.1 78.98 47 78.98 47 86.76 50.68 86.76 50.68 84.89"/><polygon class="cls-1" points="54.06 78.98 51.97 78.98 51.97 86.76 55.64 86.76 55.64 84.89 54.06 84.89 54.06 78.98"/><rect class="cls-1" x="56.92" y="78.98" width="2.1" height="7.78"/><path class="cls-1" d="M61.38,79.93a4.92,4.92,0,0,0-.8,3,4.81,4.81,0,0,0,.8,2.93,2.61,2.61,0,0,0,2.21,1.06,2.44,2.44,0,0,0,2.16-1.08,5.94,5.94,0,0,0,.67-3.23V82.26H63.48V83.9h0.78a1.9,1.9,0,0,1-.05.47,1.22,1.22,0,0,1-.15.36,0.69,0.69,0,0,1-.23.23,0.59,0.59,0,0,1-.3.08,0.64,0.64,0,0,1-.61-0.46,4.11,4.11,0,0,1-.19-1.47q0-2.38.87-2.38a0.49,0.49,0,0,1,.41.21,1.18,1.18,0,0,1,.21.58l2-.75a2.79,2.79,0,0,0-2.67-1.92A2.57,2.57,0,0,0,61.38,79.93Z"/><polygon class="cls-1" points="67.97 86.76 71.87 86.76 71.87 84.89 70.06 84.89 70.06 83.7 71.68 83.7 71.68 81.94 70.06 81.94 70.06 80.81 71.87 80.81 71.87 78.98 67.97 78.98 67.97 86.76"/><path class="cls-1" d="M76.9,80.73q0,0.49.06,1.21t0.18,1.73L76.91,83c-0.09-.27-0.17-0.51-0.24-0.72l-0.19-.55L75.43,79h-2v7.78h2v-2c0-.31,0-0.66,0-1.07s-0.05-.88-0.1-1.43c0.07,0.24.15,0.5,0.23,0.76l0.3,0.86,1.06,2.86h2V79h-2v1.75Z"/><path class="cls-1" d="M83.43,84.73A1.18,1.18,0,0,1,83,84.34a2,2,0,0,1-.26-0.63,3.58,3.58,0,0,1-.09-0.85A2.76,2.76,0,0,1,83,81.33a1.14,1.14,0,0,1,1-.55,1.37,1.37,0,0,1,1,.47V79a3.05,3.05,0,0,0-1-.19,3.11,3.11,0,0,0-2.5,1.11,4.44,4.44,0,0,0-.94,3,4.29,4.29,0,0,0,1,3,2.88,2.88,0,0,0,2.2,1A3.41,3.41,0,0,0,85,86.61l0.12-2.25a1.64,1.64,0,0,1-1.09.5A1.15,1.15,0,0,1,83.43,84.73Z"/><polygon class="cls-1" points="90.47 84.89 88.67 84.89 88.67 83.7 90.29 83.7 90.29 81.94 88.67 81.94 88.67 80.81 90.47 80.81 90.47 78.98 86.57 78.98 86.57 86.76 90.47 86.76 90.47 84.89"/><path class="cls-1" d="M97.18,79l-1.87,7.78h2.17l0.17-1h1.42l0.16,1h2.17L99.75,79H97.18Zm0.76,5.12,0.21-1.22,0.15-.94,0-.15,0.05-.43,0-.29c0-.09,0-0.17,0-0.24l0.07,0.73,0,0.38,0,0.23q0.1,0.77.11,0.88a0.76,0.76,0,0,0,0,.14l0.14,0.91H97.93Z"/><path class="cls-1" d="M105.47,86.89a2.44,2.44,0,0,0,2.16-1.08,5.93,5.93,0,0,0,.67-3.23V82.26h-2.93V83.9h0.77a1.9,1.9,0,0,1-.05.47,1.2,1.2,0,0,1-.15.36,0.69,0.69,0,0,1-.23.23,0.58,0.58,0,0,1-.3.08,0.64,0.64,0,0,1-.61-0.46,4.13,4.13,0,0,1-.19-1.47q0-2.38.87-2.38a0.49,0.49,0,0,1,.41.21,1.17,1.17,0,0,1,.21.58l2-.75a2.78,2.78,0,0,0-2.67-1.92,2.57,2.57,0,0,0-2.19,1.09,4.93,4.93,0,0,0-.8,3,4.8,4.8,0,0,0,.8,2.93A2.61,2.61,0,0,0,105.47,86.89Z"/><polygon class="cls-1" points="113.76 84.89 111.95 84.89 111.95 83.7 113.57 83.7 113.57 81.94 111.95 81.94 111.95 80.81 113.76 80.81 113.76 78.98 109.86 78.98 109.86 86.76 113.76 86.76 113.76 84.89"/><path class="cls-1" d="M117.32,84.77q0-.46,0-1.07t-0.1-1.43q0.1,0.36.23,0.76c0.09,0.27.19,0.55,0.3,0.86l1.06,2.86h2V79h-2v1.75q0,0.49.06,1.21T119,83.67L118.81,83c-0.09-.27-0.17-0.51-0.24-0.72l-0.19-.55L117.32,79h-2v7.78h2v-2Z"/><path class="cls-1" d="M125.6,86.89a3.41,3.41,0,0,0,1.25-.28L127,84.36a1.64,1.64,0,0,1-1.09.5,1.15,1.15,0,0,1-.56-0.14,1.18,1.18,0,0,1-.42-0.39,2,2,0,0,1-.26-0.63,3.62,3.62,0,0,1-.09-0.85,2.77,2.77,0,0,1,.36-1.53,1.14,1.14,0,0,1,1-.55,1.37,1.37,0,0,1,1,.47V79a3,3,0,0,0-1-.19,3.11,3.11,0,0,0-2.5,1.11,4.43,4.43,0,0,0-.94,3,4.29,4.29,0,0,0,1,3A2.88,2.88,0,0,0,125.6,86.89Z"/><path class="cls-1" d="M129.85,86.76h2.1V83.46L133.75,79h-2.17l-0.38,1.16c0,0.13-.09.29-0.15,0.5l-0.2.74q-0.07-.29-0.16-0.6c-0.06-.21-0.13-0.43-0.2-0.65L130.11,79h-2.19l1.93,4.48v3.29Z"/><circle class="cls-1" cx="125.1" cy="61.97" r="0.37"/><circle class="cls-1" cx="42.69" cy="42.05" r="0.37"/><circle class="cls-1" cx="54.77" cy="32.04" r="0.37"/><circle class="cls-1" cx="32.25" cy="60.01" r="0.37"/><circle class="cls-1" cx="84.13" cy="25.66" r="0.37"/><circle class="cls-1" cx="88.84" cy="25.66" r="0.37"/><circle class="cls-1" cx="124.86" cy="101.4" r="0.37"/><circle class="cls-1" cx="77.17" cy="123.64" r="0.37"/><circle class="cls-1" cx="110.02" cy="117.19" r="0.37"/><circle class="cls-1" cx="75.02" cy="132.02" r="0.37"/><circle class="cls-1" cx="32.51" cy="104.72" r="0.37"/><polygon class="cls-1" points="37.7 29.5 40.83 28.01 43.84 29.75 43.39 26.31 45.97 23.99 42.56 23.35 41.15 20.18 39.49 23.23 36.04 23.59 38.43 26.11 37.7 29.5"/><polygon class="cls-1" points="25.59 42.15 28.2 39.87 31.56 40.73 30.2 37.54 32.05 34.61 28.6 34.92 26.39 32.25 25.61 35.63 22.39 36.91 25.36 38.69 25.59 42.15"/><polygon class="cls-1" points="16.19 54.33 17.33 57.6 19.23 54.7 22.7 54.62 20.53 51.92 21.52 48.59 18.28 49.83 15.43 47.85 15.6 51.31 12.84 53.42 16.19 54.33"/><polygon class="cls-1" points="113.14 29.75 116.15 28.01 119.28 29.5 118.55 26.11 120.94 23.59 117.49 23.23 115.83 20.18 114.42 23.35 111.02 23.99 113.59 26.31 113.14 29.75"/><polygon class="cls-1" points="125.42 40.73 128.78 39.87 131.4 42.15 131.62 38.69 134.59 36.91 131.37 35.63 130.59 32.25 128.38 34.92 124.93 34.61 126.78 37.54 125.42 40.73"/><polygon class="cls-1" points="134.28 54.62 137.75 54.7 139.65 57.6 140.79 54.33 144.14 53.42 141.38 51.31 141.55 47.85 138.7 49.83 135.46 48.59 136.45 51.92 134.28 54.62"/><circle class="cls-1" cx="105.1" cy="135.92" r="0.61"/><circle class="cls-1" cx="99.65" cy="137.48" r="0.54"/><path class="cls-1" d="M64.51,62.27L64,62.62l0.4,0c1.05,0.06,1.36-.27,1.16-1.19Z"/><path class="cls-1" d="M57.76,49.57l-1.52.27v0.79H57Q57.35,50.09,57.76,49.57Z"/><path class="cls-1" d="M67.45,61.87a0.52,0.52,0,0,0,.36-0.3,0.56,0.56,0,0,0-.21-0.46c-0.39-.17-0.82-0.26-1.22-0.38C66.11,61.82,66.64,62,67.45,61.87Z"/><path class="cls-1" d="M65,59.92H64.85l0.14,0,1,0.3C65.81,59.65,65.38,59.92,65,59.92Z"/><path class="cls-1" d="M104.61,55.79c0.64,0,1.3,0,2,0l0.13,0,0,0,0.06,0q-0.57-.76-1.17-1.49h0l-0.08.13-0.1.13-0.05.06,0,0-0.05,0a1.43,1.43,0,0,1-.36.24l-0.11.06-0.17.07-0.24.08a0.46,0.46,0,0,0-.22.38A0.59,0.59,0,0,0,104.61,55.79Z"/><path class="cls-1" d="M61.87,59.34a3,3,0,0,0,1.14.29c0.09-.43.19-0.85,0.29-1.27L63,58.43A1.34,1.34,0,0,0,61.87,59.34Z"/><path class="cls-1" d="M59.72,56.08c0.21,0.41.42,0.78,0.6,1.14,1-.21,1.13-0.34,1.19-1.42C60.73,55.46,60.69,55.47,59.72,56.08Z"/><path class="cls-1" d="M104.14,64.15h0.17c0-.13-0.07-0.25-0.11-0.38a0.66,0.66,0,0,0-.19,0A1.1,1.1,0,0,0,104.14,64.15Z"/><path class="cls-1" d="M105.43,63.34a8.09,8.09,0,0,0-1.73-1.23c0.18,0.55.35,1.1,0.51,1.66C104.67,63.74,105.25,64,105.43,63.34Z"/><path class="cls-1" d="M110.46,63.09c0-.32-0.13-0.65-0.19-1-1.2.25-1.13,1.23-1.38,2h1.94A2.2,2.2,0,0,1,110.46,63.09Z"/><path class="cls-1" d="M104.93,61.83a11,11,0,0,1,1.43.83,5.08,5.08,0,0,0-.25.87,1.4,1.4,0,0,1-.18.61h2.32a5.09,5.09,0,0,1-.46-0.52,1.65,1.65,0,0,1-.46-0.87,1.87,1.87,0,0,0-.93-1.8,1.73,1.73,0,0,1-.54-0.48c-0.56-.76-1.32-0.56-2.11-0.5A2.22,2.22,0,0,0,104.93,61.83Z"/><path class="cls-1" d="M101.16,56a4.11,4.11,0,0,1,1.25,0L103.69,56c-0.09-.64-0.17-1.18-0.24-1.78l-1.5.52c-0.44-.62-0.36-1.6-1.41-1.42a1.2,1.2,0,0,1,.54-1.7c0.34-.19.75-0.28,1.08-0.48l0.35-.25a36.81,36.81,0,0,0-11.63-7.4A34.08,34.08,0,0,1,101.16,56Z"/><path class="cls-1" d="M71.41,46.54a1.47,1.47,0,0,1-.06.27c-0.27.25-.55,0.49-0.82,0.76a0.83,0.83,0,0,0,.17,1.3A9.21,9.21,0,0,0,71.9,49c0-.38,0-0.68-0.07-1a0.76,0.76,0,0,1,.56-1c0.77-.21,1.53-0.42,2.31-0.56a2.46,2.46,0,0,1,1.2,0l0.56,0.22v-5.6c-2.35.42-4.55,2.37-6.47,5.45h1.42Z"/><path class="cls-1" d="M63.81,46.55a1.65,1.65,0,0,0,2.66.26c0.4-.38.72-0.5,1.1-0.07a2.6,2.6,0,0,1-3,1.33c0.07,0.52.12,0.92,0.17,1.32h1.55A24.41,24.41,0,0,1,71,42a23.39,23.39,0,0,0-7.42,4.24A1,1,0,0,1,63.81,46.55Z"/><path class="cls-1" d="M75,48.52a5.41,5.41,0,0,0-1.79.44,2.58,2.58,0,0,1-2.17.84l0.54,1a1.89,1.89,0,0,0-.84.3c-0.18.6-.58,0.44-1,0.43-0.09-.36-0.16-0.7-0.24-1a11.78,11.78,0,0,0-1.86.69c-0.48,1.19-.94,2.46-1.36,3.8h0.06c0.44,0.09.89,0.15,1.41,0.24v2c0.83,0,.9,0,1.11-0.66a1.85,1.85,0,0,1,1.64-1.44c0.11,0,.21-0.07.31-0.09a0.65,0.65,0,0,0,.6-0.78,14,14,0,0,1,0-1.5,1.47,1.47,0,0,1,1.27-1.25c0.83,0.15,1.64.36,2.46,0.55,0,0.61-.08,1.12-0.11,1.65a2,2,0,0,0,1.44-.31v-2l-2.4-.58,2.4-1.31V49A1.4,1.4,0,0,0,75,48.52Z"/><path class="cls-1" d="M75.54,104.42c-1,.38-2,0.74-3,1.11a2.33,2.33,0,0,0-.44.38,2.23,2.23,0,0,0,.4.42,5,5,0,0,0,.77.27l-1.16,1.6a2.42,2.42,0,0,0,.82.56c0.89,0.19.92,0.17,0.69,1,0,0.17-.11.33-0.17,0.5a1,1,0,0,0,.38,1.35,4.76,4.76,0,0,1,.85.71c0.26,0.24.21,0.88-.06,0.87H74.25a6.35,6.35,0,0,0,2.22.87V103.38L76,104A1.09,1.09,0,0,1,75.54,104.42Z"/><path class="cls-1" d="M59.54,47.49H59a15.44,15.44,0,0,1,1.84-1.36,29.25,29.25,0,0,1,2.89-2.43,38.44,38.44,0,0,0-7.23,4.06l2.24,0.58C59,48.05,59.28,47.77,59.54,47.49Z"/><path class="cls-1" d="M63.16,49.4a0.69,0.69,0,0,0-.81-0.76c-0.4,0-.81,0-1.24,0-0.15.15-.28,0.3-0.42,0.46a1,1,0,0,1,0,.18,0.27,0.27,0,0,0,.21.11C61.67,49.41,62.4,49.4,63.16,49.4Z"/><path class="cls-1" d="M64.79,52.78a0.56,0.56,0,0,0-.15.44,1.64,1.64,0,0,0,0,.27c0.09-.28.19-0.57,0.29-0.85Z"/><path class="cls-1" d="M61.77,61.46a0.64,0.64,0,0,0,.28.48,0.52,0.52,0,0,0,.48-0.06l0,0c0.11-.62.23-1.22,0.36-1.82A1.48,1.48,0,0,0,61.77,61.46Z"/><path class="cls-1" d="M106.31,100.08a1.29,1.29,0,0,0-.23-0.76,3.93,3.93,0,0,1-1.19-3.49,1.35,1.35,0,0,0,0-.59,2.47,2.47,0,0,0-.43-0.95,2.28,2.28,0,0,1-.73-1.26c-2.6,8-7.15,14.55-12.83,18.61A36.77,36.77,0,0,0,106.31,100.08Z"/><path class="cls-1" d="M100.28,61.39a0.58,0.58,0,0,0-.5.17,9.41,9.41,0,0,0-1.67,2.25,2,2,0,0,1-.18.34h4.34c-0.28-1-.58-1.9-0.91-2.81A1.13,1.13,0,0,1,100.28,61.39Z"/><path class="cls-1" d="M93.9,64.15a1.57,1.57,0,0,1-.22-0.6c-0.05-.37-0.13-0.74-0.17-1.1a1.22,1.22,0,0,1,1-1.38,4.21,4.21,0,0,1,2.19,0,4.65,4.65,0,0,0,.77.09c0.42-.71.24-1.14-0.51-1.27,0-.3.09-0.54,0.1-0.77A0.79,0.79,0,0,1,98,58.18a1.76,1.76,0,0,0,1.66-.83C96.05,49.84,90.43,44.27,83.86,42c4.12,4.09,7.32,12.07,8.85,22.1h1.2Zm2.37-10.61a3.24,3.24,0,0,1,1-.21c0.28,1.44.68,2.74,2.1,3.38-0.51.94-1.31,1.17-3.12,0.92,0.08-.54-0.19-1.19.73-1.38,0.41-.09.24-0.54,0-0.77s-0.6-.35-0.86-0.58a0.93,0.93,0,0,1-.35-0.66A1.37,1.37,0,0,1,96.28,53.54ZM95.2,55.1a1.07,1.07,0,0,1,.82.3,1.19,1.19,0,0,1-.3.93c-1.05.91-1.11,0.9-2,.8A1.67,1.67,0,0,1,95.2,55.1Z"/><path class="cls-1" d="M78.42,41.07v6.45l0.2,0.09a0.67,0.67,0,0,1,.52.83,0.7,0.7,0,0,0,.72,1,1.63,1.63,0,0,1,.35.12c-0.26.4-.19,1.07-0.87,1a1.8,1.8,0,0,0-.93.08v4.94a2.66,2.66,0,0,0,.5.25,1.16,1.16,0,0,1,0,1.56l-0.46.25v0.74a3.24,3.24,0,0,0,.54.29c0.57,0.23.69,0.58,0.44,1.26l-1-.28v4.56H90.7C88.67,51.47,83.92,42.07,78.42,41.07Z"/><path class="cls-1" d="M74.79,57.73a1.18,1.18,0,0,0-1.39-.34,0.82,0.82,0,0,0-.35.57,0.84,0.84,0,0,0,.43.46,4.19,4.19,0,0,0,.8.28l-0.55.6c-0.82-.52-0.81-0.47-1.54.13s-1.25,1.6-2.29,2c-1.35.52-2.14,1.74-3.12,2.72h9.68V57.84a3,3,0,0,1-1,.19A0.85,0.85,0,0,1,74.79,57.73Zm-2.19,3.48L72.37,61l0.46-.71,0.41,0.49Zm3.2-1.57h0a4.89,4.89,0,0,1-.86,1.19c-0.46.38-.91,0.07-0.95-0.61,0.45-.11,1.07.15,1.31-0.55A0.92,0.92,0,0,1,75.8,59.64Z"/><path class="cls-1" d="M108.6,137.09a55.87,55.87,0,0,1-7.72,2.14c-1.24.14-4.79-1.66-7-2.25s-7.7,1-10,1.65-10.35,3-11.55,2.24a19.77,19.77,0,0,0-3.26-1.45c-0.07-.89-1.36-1.74-2.88-2.52s-4.24.12-5.15,0.58,0.12,1.31.12,1.31c0.08,0.53,4.22,4.19,4.45,4.37s2.23,2,1.89,3.44a2.4,2.4,0,0,0,1,2.38c1.53,0.86,1.72.41,1.74,0.13s-1.19-1-.82-1.06,2-.91,2.22-0.91,0.41-.37,1.1.64,1.06,0.09,1.06.09a0.7,0.7,0,0,1-.1-0.72c7.15,2.2,7.64.91,10.59-.05a59.82,59.82,0,0,0,8-3.86,9.13,9.13,0,0,0,3.74.85c0.62-.13-0.67-1.05-1.39-1.28a2.41,2.41,0,0,1-1.3-1.91c0-.53,2.61.12,3.23,0.32s0.4-.89.4-0.89a12.32,12.32,0,0,0,5.56.39c1.39-.17,6-3,6.19-3.14S109.31,136.7,108.6,137.09Zm-44.82,1.07a0.34,0.34,0,1,1-.23-0.32A0.29,0.29,0,0,1,63.78,138.16Zm2.08,0.91a0.17,0.17,0,0,1-.08-0.24,1.2,1.2,0,0,0,.28-0.35,0.57,0.57,0,0,1-.27-0.3s0.82-.15.8,0.35A0.73,0.73,0,0,1,65.86,139.07Z"/><path class="cls-1" d="M134.42,92.61a57.86,57.86,0,1,0-15.16,26.61A58.1,58.1,0,0,0,134.42,92.61Zm-111-28.46H39.93c0.18-.49.37-1,0.58-1.47,0.28-.68.59-1.35,0.91-2H33.81a1.69,1.69,0,1,1,0-1.33h8.27a40.71,40.71,0,0,1,3.25-5.18l-9-6.87,4.84-4.54A1.67,1.67,0,0,1,41,42a1.69,1.69,0,1,1,1.69,1.69,1.67,1.67,0,0,1-.54-0.1L38.36,47.2l7.77,5.92q1.3-1.65,2.77-3.19a40.16,40.16,0,0,1,6.16-5.26,42.53,42.53,0,0,1,5.82-3.33V32.7H56.33a1.69,1.69,0,1,1,0-1.33H62.2v9.35c0.64-.28,1.28-0.55,1.94-0.79A41.37,41.37,0,0,1,76.85,37.4l1.32,0V29h5.3v-1.8a1.69,1.69,0,1,1,1.33,0v3.12H79.5v7q1.35,0,2.7.17V31.29h6V27.22a1.69,1.69,0,1,1,1.33,0v5.39h-6v5.1c1.38,0.18,2.75.43,4.12,0.74A39.8,39.8,0,0,1,97,41.87a40.54,40.54,0,0,1,8.41,5.73,41.36,41.36,0,0,1,5.55,6q1.25,1.65,2.32,3.41,2.72,0,8.25.06V51.26h4.23v9.16a1.69,1.69,0,1,1-1.33,0V52.58h-1.57v5.81h-0.67c-2.4,0-5.73-.07-8.13-0.07,0.48,0.86,1,1.73,1.38,2.63,0.5,1.06.95,2.13,1.35,3.21h16.5c0.08,0.31.16,0.62,0.23,0.93H43.71a3.23,3.23,0,0,1,0-.76,0.52,0.52,0,0,0,0-.16s0-.08,0-0.11l-0.24,0,0,0.08c-0.11.31-.21,0.62-0.32,0.93H23.18C23.26,64.77,23.34,64.46,23.42,64.15Zm-0.59,2.53H133.88a55.63,55.63,0,0,1,.1,22.76H104.87a0.89,0.89,0,0,0-.08-0.25h0l-0.07.26h-82A55.65,55.65,0,0,1,22.83,66.69ZM110,118.89a1.7,1.7,0,0,1-1.56-1h-3.78v6.45H97.93v-10c-0.71.39-1.41,0.78-2.13,1.14a34,34,0,0,1-9,3.08v7.35h4.78v4.23H82.19v-5.8H78.73a1.69,1.69,0,1,1,0-1.32h4.78v5.8h6.7V127.2H85.44v-8.44c-1.61.26-3.24,0.44-4.85,0.66H75.87c-0.17,0-.33-0.09-0.5-0.12-2.07-.31-4.16-0.52-6.2-1-0.77-.17-1.53-0.36-2.28-0.57v7.95h4.78v5.64h1.78a1.69,1.69,0,1,1,0,1.32H70.36V127H65.57v-9.68a39.76,39.76,0,0,1-11.7-6.09,41.19,41.19,0,0,1-6.59-6.16v7.19H39.51v-6.86H34a1.69,1.69,0,1,1,.05-1.33h6.75V111H46v-7.48a40.64,40.64,0,0,1-6.21-11.31q-0.19-.52-0.36-1.05h4c0.14,0.35.29,0.7,0.44,1.05A36.81,36.81,0,0,0,64,111.64c-5.88-4.21-10.53-11.11-13.08-19.46-0.11-.35-0.22-0.7-0.31-1.05h2c0.1,0.35.21,0.7,0.33,1.05,3.29,10.33,10,18.19,18.07,20.94-4-3.94-7.07-11.46-8.65-20.94-0.06-.35-0.12-0.7-0.17-1.05h21a2.24,2.24,0,0,0-.09.54c0,0.17,0,.34,0,0.51,0,0.83-.14,1.66-0.26,2.48a2.12,2.12,0,0,1-.49.91,2.67,2.67,0,0,1-2.55.78,0.9,0.9,0,0,0-.66.12,1.81,1.81,0,0,0-.53,1.79,9.68,9.68,0,0,1,.29,1.07,1,1,0,0,1-.22,1l-0.22.29v13.47c5.34-1,10-9.83,12.08-21.92q0.09-.52.18-1.05h2c-0.05.35-.11,0.71-0.16,1.05-1.59,9.49-4.7,17-8.66,20.94,8.12-2.75,14.78-10.62,18.07-20.94,0.11-.35.23-0.7,0.33-1.05h2l-0.06.23,0.12-.23h13c-0.12.35-.23,0.71-0.36,1.05a41.2,41.2,0,0,1-6,11.08c-0.48.63-1,1.23-1.48,1.83h10v-4.35h3.86a1.69,1.69,0,1,1,0,1.33h-2.53v4.35h-12.5a35.81,35.81,0,0,1-5.94,5.2c-1,.68-2,1.33-3.07,1.94V123h4.1v-6.45h5.11A1.69,1.69,0,1,1,110,118.89Z"/></svg>