<svg id="Layer_1" data-name="Layer 1" xmlns="http://www.w3.org/2000/svg" viewBox="0 0 170.08 170.08"><defs><style>.cls-1,.cls-3{fill:none;stroke-width:3px;}.cls-1{stroke:#f37c20;stroke-linecap:round;stroke-linejoin:round;}.cls-2{fill:#19ff00;}.cls-3{stroke:#19ff00;stroke-miterlimit:10;}</style></defs><title>CIApage-icons</title><path class="cls-1" d="M149.34,111.69c10.08,23.87-13.79,47.74-37.66,37.66-9.67,23.87-43.62,23.87-53.29,0-23.87,10.08-47.74-13.79-37.66-37.66-23.87-9.67-23.87-43.62,0-53.29C10.65,34.52,34.52,10.65,58.39,20.74c9.67-23.87,43.62-23.87,53.29,0,23.87-10.08,47.74,13.79,37.66,37.66C173.21,68.06,173.21,101.81,149.34,111.69Z"/><circle class="cls-2" cx="60.62" cy="104.66" r="17.95" transform="translate(-56.25 73.52) rotate(-45)"/><circle class="cls-2" cx="103.36" cy="61.93" r="17.95" transform="translate(-13.51 91.23) rotate(-45)"/><path class="cls-3" d="M57.3,118.66s25.11,12.86,47.44-9.29c0,0,30.22-29.33,8.47-57.29"/></svg>