<svg id="Layer_1" data-name="Layer 1" xmlns="http://www.w3.org/2000/svg" viewBox="0 0 170.08 170.08"><defs><style>.cls-1,.cls-2,.cls-3{fill:none;}.cls-1{stroke:#f6ec13;stroke-linecap:round;stroke-linejoin:round;}.cls-2{stroke:#19ff00;}.cls-2,.cls-3{stroke-miterlimit:10;stroke-width:3px;}.cls-3{stroke:#50bbe9;}</style></defs><title>CIApage-icons</title><path class="cls-1" d="M64.39,81.74A11.13,11.13,0,0,1,61.67,69.2c3-7.73,9.33-9,9.33-9"/><path class="cls-2" d="M85,2.83s-41.1,41.1-82.2,41.1c0,0,0,104.15,82.2,123.31,82.2-19.16,82.2-123.31,82.2-123.31C126.14,43.94,85,2.83,85,2.83Z"/><path id="a" class="cls-3" d="M37.72,53.34,66.92,51a23.35,23.35,0,0,0-10.06-2.24A23,23,0,1,0,73.63,87.64a1.8,1.8,0,0,1,2.61,0,1.37,1.37,0,0,1,.62,1.24v1.86c0,1.12,0,2.73.12,4.72v35.16M111.53,56C106.31,45.51,97,38.81,85.08,38.81c-7.33,0-16.9,2.86-21.14,11m29.2,80.94V95.59c0-2,0-3.6.12-4.72V89a1.37,1.37,0,0,1,.62-1.24,1.8,1.8,0,0,1,2.61,0,23,23,0,0,0,33.18-31.93,22.74,22.74,0,0,0-16.4-7c-0.62,0-5,.89-5.67.89m24.56,3.58M85.08,35.2"/><line class="cls-3" x1="82.53" y1="138.5" x2="82.53" y2="110.49"/><line class="cls-3" x1="87.73" y1="129.17" x2="87.73" y2="101.15"/><path class="cls-1" d="M105.24,64.63a8.83,8.83,0,0,1,9.73,3c4.15,5.13,2.55,10,2.55,10"/></svg>