<svg id="Layer_1" data-name="Layer 1" xmlns="http://www.w3.org/2000/svg" viewBox="0 0 170.08 170.08"><defs><style>.cls-1,.cls-2{fill:none;stroke-miterlimit:10;stroke-width:3px;}.cls-1{stroke:#ee4c75;}.cls-2{stroke:#19ff00;}.cls-3{fill:#50bbe9;}</style></defs><title>CIApage-icons</title><path class="cls-1" d="M85,123.69a60.43,60.43,0,1,1,60.43-60.43A60.49,60.49,0,0,1,85,123.69Z"/><path class="cls-2" d="M62.56,51.36c0.39,0,.77-0.06,1.16-0.06A19.21,19.21,0,0,1,74.3,54.47"/><path class="cls-2" d="M62.56,51.36a19.3,19.3,0,0,0,1.16,38.57"/><path class="cls-2" d="M97.87,62.21a16.21,16.21,0,0,1,9.37-4.64"/><path class="cls-2" d="M109.41,89.94a16.27,16.27,0,1,0-2.16-32.37"/><path class="cls-2" d="M94.57,38.9a11.87,11.87,0,0,1,12.68,18.66"/><path class="cls-2" d="M94.57,38.9A11.89,11.89,0,0,0,87.78,44"/><path class="cls-2" d="M62.56,51.36A9.66,9.66,0,0,1,73.88,36.63"/><path class="cls-2" d="M88.36,25.14A9.65,9.65,0,0,1,76.94,38"/><path class="cls-2" d="M73.88,36.63a9.65,9.65,0,0,0,1.94,1"/><path class="cls-2" d="M76.94,38a9.62,9.62,0,0,1-1.12-.36"/><path class="cls-2" d="M94.57,38.9a9.66,9.66,0,0,0-6.21-13.76"/><line class="cls-2" x1="109.41" y1="89.94" x2="63.72" y2="89.94"/><path class="cls-3" d="M55,167.24l-3.48-8.92A5.5,5.5,0,0,0,44.83,155l-9.19,2.62L52.81,123a70.49,70.49,0,0,0,20.73,6.77Z"/><path class="cls-3" d="M125.24,155a5.52,5.52,0,0,0-6.65,3.29l-3.48,8.92L96.54,129.7a70.49,70.49,0,0,0,20.73-6.77l17.17,34.65Z"/></svg>