<svg id="Layer_1" data-name="Layer 1" xmlns="http://www.w3.org/2000/svg" viewBox="0 0 170.08 170.08"><defs><style>.cls-1,.cls-2{fill:none;stroke-miterlimit:10;stroke-width:3px;}.cls-1{stroke:#50bbe9;}.cls-2{stroke:#19ff00;}.cls-3{fill:#f4eb14;}</style></defs><title>CIApage-icons</title><polygon class="cls-1" points="144.36 122.39 86.21 158.74 28.05 122.39 28.05 19.49 144.36 19.49 144.36 122.39"/><path class="cls-2" d="M86.11,77.87A14.54,14.54,0,0,0,85.46,94c2.1,2.79,7.54,8.86,9.57,9.5,7.09,2.24,9,5.69,10.87,7.63,4.27,4.55,2.95,8.84,4.39,9.35,2.74,1,3.34,1,4.61.92,2.6-.22,4.79,1.7,7,0.25,1.58-1.06,2.06-2.12,3.49-3.37,1-.9,3.23-1.34,3.59-2.66,0.71-2.62,1.71-7.37,2.19-9.35,1.23-5.06-5.78-11.26-6.54-16.12-0.49-3.12-2.88-10.23-4-13.13-0.91-2.38,3.56-7.51,2.63-10.23a32,32,0,0,0-3.5-7.32c-0.79-1.21-2.34-.53-3-0.38-3.05.71-7.28-6.63-5.86-9.93,0.66-1.54,2.78-2.78,5.4-4.49L118.73,43c1.24-1,2.4-1.81,2.88-2.26s2.16-4.59,2.54-5.52c0.72-1.79,2.42-7.38,1.06-8C123,26.09,114.27,38,111.34,42.32c-0.11.16-.54,0.94-0.63,1.09a1,1,0,0,1-1.05.33c-1-.44-1.85-0.81-3.1-1.26a0.74,0.74,0,0,1-.43-1c1.39-3.39,5.12-10.91,8.38-14.55,0.81-.9,1.9-2,0.64-2.27-8.45-1.63-13.52,12.11-16,14.88-0.73.81-2.47,0.56-3.3,0.48A46.73,46.73,0,0,0,67.64,127.3a2.47,2.47,0,0,0,2.32-.08c1.73-1.45,3.72-4.61,5.52-8.7a37.31,37.31,0,0,0,2.57-6.34c0.33-1.09.64-2.22,0.93-3.37a82.49,82.49,0,0,0,2-8.37c0.32-1.3,2.79-8.12,3.18-9.16"/><path class="cls-3" d="M124.74,41c-3.35,2.24-6.29,4.34-6.69,4.6-2,1.29-4.4,2.87-4.9,4-1.08,2.5,2.12,8,4.42,7.5a12.06,12.06,0,0,0,2.72-1.88c2.84-2.46,7.39-6.31,12.24-10.61a0.63,0.63,0,0,0-.19-0.9,24.14,24.14,0,0,0-6.41-2.91A1.14,1.14,0,0,0,124.74,41Z"/><path class="cls-3" d="M169,11.61c-0.28.16-6.54,4.29-14.54,9.62a0.21,0.21,0,0,0,0,.38,23.82,23.82,0,0,1,2.35,1.29,0.65,0.65,0,0,0,.74-0.13c2.21-2,10.95-9.48,11.94-10.42S170,11,169,11.61Z"/><path class="cls-3" d="M139.29,31.32c-4.09,2.68-8,5.31-11.29,7.49a0.42,0.42,0,0,0,.14.75,28.34,28.34,0,0,1,5.61,2.92,1.12,1.12,0,0,0,1.29,0c3.32-2.91,6.77-5.88,9.86-8.59a0.34,0.34,0,0,0,0-.58,39.15,39.15,0,0,0-4.78-2.07A0.78,0.78,0,0,0,139.29,31.32Z"/><path class="cls-3" d="M152,22.9c-3,2.06-6.33,4.09-9.48,6.28-0.27.19-.4,0.53,0,0.7a24.74,24.74,0,0,1,3.8,2,0.87,0.87,0,0,0,1-.11c3.52-3.08,6.45-5.67,8.2-7.16,0.15-.13.09-0.31-0.16-0.47a20.52,20.52,0,0,0-2.76-1.31A0.56,0.56,0,0,0,152,22.9Z"/></svg>