<svg id="Layer_1" data-name="Layer 1" xmlns="http://www.w3.org/2000/svg" viewBox="0 0 170.08 170.08"><defs><style>.cls-1{fill:#ee4c75;}.cls-2{fill:#50bbe9;}.cls-3{fill:#f6ec13;}</style></defs><title>CIApage-icons</title><path class="cls-1" d="M85,2.83h0A1.74,1.74,0,0,0,83.2,4.67,1.84,1.84,0,0,0,85,6.51h0.18a1.84,1.84,0,0,0,1.84-1.84,2.14,2.14,0,0,0-2-1.84h0ZM76,3.2H75.84a2.15,2.15,0,0,0-1.66,2A2,2,0,0,0,76,6.88H76.4a2.15,2.15,0,0,0,1.66-2A2.34,2.34,0,0,0,76,3.2h0ZM67.2,4.86H66.65a1.75,1.75,0,0,0-1.29,2.21A1.79,1.79,0,0,0,67.2,8.54h0.55A1.75,1.75,0,0,0,69,6.33,2.11,2.11,0,0,0,67.2,4.86h0ZM58.37,7.25a0.68,0.68,0,0,0-.55.18h0a1.84,1.84,0,0,0-1.1,2.39,1.77,1.77,0,0,0,1.66,1.29,0.68,0.68,0,0,0,.55-0.18h0A1.84,1.84,0,0,0,60,8.54a1.77,1.77,0,0,0-1.66-1.29h0ZM50.1,10.74a1.11,1.11,0,0,0-.74.18h0a1.82,1.82,0,0,0-.92,2.39,1.77,1.77,0,0,0,1.66,1.1,1.11,1.11,0,0,0,.74-0.18h0a1.82,1.82,0,0,0,.92-2.39,1.77,1.77,0,0,0-1.66-1.1h0Zm-7.91,4.41a0.87,0.87,0,0,0-.92.37h0a1.81,1.81,0,0,0-.55,2.57,1.88,1.88,0,0,0,1.47.92,0.87,0.87,0,0,0,.92-0.37h0a1.81,1.81,0,0,0,.55-2.57,1.38,1.38,0,0,0-1.47-.92h0Zm-7.36,5.15a2.61,2.61,0,0,0-1.1.37h0a2,2,0,0,0-.37,2.57,2.27,2.27,0,0,0,1.47.74,2.61,2.61,0,0,0,1.1-.37h0A2,2,0,0,0,36.31,21a2.27,2.27,0,0,0-1.47-.74h0Zm-6.62,6.07a1.67,1.67,0,0,0-1.29.55h0a1.78,1.78,0,0,0,0,2.57,1.78,1.78,0,0,0,2.57,0h0a1.78,1.78,0,0,0,0-2.57,2,2,0,0,0-1.29-.55h0Zm-6.07,6.8a1.67,1.67,0,0,0-1.47.74h0A1.8,1.8,0,0,0,21,36.49a2.61,2.61,0,0,0,1.1.37,1.67,1.67,0,0,0,1.47-.74h0a1.8,1.8,0,0,0-.37-2.57,1.35,1.35,0,0,0-1.1-.37h0Zm-5.33,7.36a1.64,1.64,0,0,0-1.47.92h0A2,2,0,0,0,15.89,44a1.94,1.94,0,0,0,.92.37,1.64,1.64,0,0,0,1.47-.92h0a1.81,1.81,0,0,0-.55-2.57,0.87,0.87,0,0,0-.92-0.37h0Zm-4.23,7.91a1.77,1.77,0,0,0-1.66,1.1h0a1.82,1.82,0,0,0,.92,2.39,1.11,1.11,0,0,0,.74.18A1.77,1.77,0,0,0,14.24,51h0a1.82,1.82,0,0,0-.92-2.39,1.11,1.11,0,0,0-.74-0.18h0ZM9.09,56.72A1.77,1.77,0,0,0,7.43,58v0.18h0a1.91,1.91,0,0,0,1.1,2.39c0.18,0,.37.18,0.55,0.18a1.77,1.77,0,0,0,1.66-1.29h0a1.91,1.91,0,0,0-1.1-2.39,0.52,0.52,0,0,0-.55-0.37h0ZM6.51,65.36a1.79,1.79,0,0,0-1.84,1.47h0A1.86,1.86,0,0,0,6.14,69H6.51a1.79,1.79,0,0,0,1.84-1.47V67.38a1.86,1.86,0,0,0-1.47-2.21c0,0.18-.18.18-0.37,0.18h0ZM5,74.37A2,2,0,0,0,3.2,76h0a1.83,1.83,0,0,0,1.66,2H5A2,2,0,0,0,6.88,76.4V76.21a1.83,1.83,0,0,0-1.66-2c0,0.18,0,.18-0.18.18H5Zm-0.37,9h0a1.74,1.74,0,0,0-1.84,1.84h0a1.84,1.84,0,0,0,1.84,1.84h0a1.84,1.84,0,0,0,1.84-1.84V85a1.81,1.81,0,0,0-1.84-1.66h0ZM5,92.4H4.86a2.15,2.15,0,0,0-1.66,2h0A2,2,0,0,0,5,96.07H5.23a2.15,2.15,0,0,0,1.66-2V93.87A1.82,1.82,0,0,0,5,92.4H5Zm1.66,8.83H6.33a2,2,0,0,0-1.47,2.21v0.18a1.79,1.79,0,0,0,1.84,1.47H7.06a1.75,1.75,0,0,0,1.29-2.21v-0.18a1.74,1.74,0,0,0-1.66-1.47h0Zm2.39,8.64a0.68,0.68,0,0,0-.55.18,1.84,1.84,0,0,0-1.1,2.39v0.18a1.77,1.77,0,0,0,1.66,1.29,0.68,0.68,0,0,0,.55-0.18,1.91,1.91,0,0,0,1.1-2.39h0a1.74,1.74,0,0,0-1.66-1.47h0Zm3.49,8.46a1.11,1.11,0,0,0-.74.18,1.82,1.82,0,0,0-.92,2.39h0a1.77,1.77,0,0,0,1.66,1.1,1.11,1.11,0,0,0,.74-0.18,1.82,1.82,0,0,0,.92-2.39h0a1.61,1.61,0,0,0-1.66-1.1h0ZM17,126.23a0.87,0.87,0,0,0-.92.37,1.81,1.81,0,0,0-.55,2.57h0a1.88,1.88,0,0,0,1.47.92,1.4,1.4,0,0,0,.92-0.37,1.81,1.81,0,0,0,.55-2.57h0a1.38,1.38,0,0,0-1.47-.92h0Zm5.33,7.36a2.61,2.61,0,0,0-1.1.37,2,2,0,0,0-.37,2.57h0a2.27,2.27,0,0,0,1.47.74,2.61,2.61,0,0,0,1.1-.37,2,2,0,0,0,.37-2.57h0a1.67,1.67,0,0,0-1.47-.74h0Zm6.07,6.62a1.67,1.67,0,0,0-1.29.55,1.78,1.78,0,0,0,0,2.57h0a1.78,1.78,0,0,0,2.57,0,1.78,1.78,0,0,0,0-2.57h0a2,2,0,0,0-1.29-.55h0ZM35,146.28a1.67,1.67,0,0,0-1.47.74,1.8,1.8,0,0,0,.37,2.57h0A2.61,2.61,0,0,0,35,150a1.67,1.67,0,0,0,1.47-.74,1.8,1.8,0,0,0-.37-2.57h0a1.18,1.18,0,0,0-1.1-.37h0Zm7.36,5.15a1.64,1.64,0,0,0-1.47.92,2,2,0,0,0,.55,2.57h0a1.66,1.66,0,0,0,.92.18,1.64,1.64,0,0,0,1.47-.92,2,2,0,0,0-.55-2.57h0a8,8,0,0,0-.92-0.18h0Zm7.91,4.41a1.77,1.77,0,0,0-1.66,1.1,1.82,1.82,0,0,0,.92,2.39h0a1.11,1.11,0,0,0,.74.18,1.77,1.77,0,0,0,1.66-1.1A1.82,1.82,0,0,0,51,156h0a0.89,0.89,0,0,0-.74-0.18h0Zm8.46,3.31a1.77,1.77,0,0,0-1.66,1.29,1.91,1.91,0,0,0,1.1,2.39h0c0.18,0,.37.18,0.55,0.18a1.77,1.77,0,0,0,1.66-1.29,1.91,1.91,0,0,0-1.1-2.39h0c-0.18,0-.37-0.18-0.55-0.18h0Zm8.64,2.57a1.79,1.79,0,0,0-1.84,1.47,1.89,1.89,0,0,0,1.29,2.21H67.2A1.79,1.79,0,0,0,69,163.93a1.86,1.86,0,0,0-1.47-2.21H67.38Zm8.83,1.47a2,2,0,0,0-1.84,1.66,1.83,1.83,0,0,0,1.66,2h0.18a2,2,0,0,0,1.84-1.66,1.83,1.83,0,0,0-1.66-2H76.21Zm9.2,0.37h0a1.74,1.74,0,0,0-1.84,1.84,1.84,1.84,0,0,0,1.84,1.84h0a1.84,1.84,0,0,0,1.84-1.84,2,2,0,0,0-1.84-1.84h0Zm9-.55H94.05a2.15,2.15,0,0,0-1.66,2,2,2,0,0,0,1.84,1.66H94.6a2.15,2.15,0,0,0,1.66-2A2,2,0,0,0,94.42,163h0Zm8.83-1.47h-0.55a1.75,1.75,0,0,0-1.29,2.21,1.79,1.79,0,0,0,1.84,1.47h0.37A1.75,1.75,0,0,0,104.9,163a1.5,1.5,0,0,0-1.66-1.47h0Zm8.83-2.57a0.68,0.68,0,0,0-.55.18h0a1.91,1.91,0,0,0-1.1,2.39,1.77,1.77,0,0,0,1.66,1.29,0.68,0.68,0,0,0,.55-0.18h0a1.91,1.91,0,0,0,1.1-2.39,2,2,0,0,0-1.66-1.29h0Zm8.28-3.49a1.11,1.11,0,0,0-.74.18h0a1.82,1.82,0,0,0-.92,2.39,1.77,1.77,0,0,0,1.66,1.1,1.11,1.11,0,0,0,.74-0.18h0a1.82,1.82,0,0,0,.92-2.39,2,2,0,0,0-1.66-1.1h0Zm7.91-4.41a1.4,1.4,0,0,0-.92.37h0a1.81,1.81,0,0,0-.55,2.57,1.88,1.88,0,0,0,1.47.92,0.87,0.87,0,0,0,.92-0.37h0.18a1.81,1.81,0,0,0,.55-2.57,2.54,2.54,0,0,0-1.66-.92h0Zm7.17-5.15a2.61,2.61,0,0,0-1.1.37h0a2,2,0,0,0-.37,2.57,2.27,2.27,0,0,0,1.47.74,2.61,2.61,0,0,0,1.1-.37h0a1.78,1.78,0,0,0,.18-2.57,1.23,1.23,0,0,0-1.29-.74h0Zm6.8-6.07a1.67,1.67,0,0,0-1.29.55h0a1.78,1.78,0,0,0,0,2.57,1.78,1.78,0,0,0,2.57,0h0a1.78,1.78,0,0,0,0-2.57,2,2,0,0,0-1.29-.55h0Zm5.88-6.8a1.67,1.67,0,0,0-1.47.74h0a1.8,1.8,0,0,0,.37,2.57,2.61,2.61,0,0,0,1.1.37,1.67,1.67,0,0,0,1.47-.74h0a1.8,1.8,0,0,0-.37-2.57,1.55,1.55,0,0,0-1.1-.37h0Zm5.33-7.36a1.64,1.64,0,0,0-1.47.92h0a2,2,0,0,0,.55,2.57,1.94,1.94,0,0,0,.92.37,1.64,1.64,0,0,0,1.47-.92h0a2,2,0,0,0-.55-2.57,1.19,1.19,0,0,0-.92-0.37h0Zm4.23-7.91a1.77,1.77,0,0,0-1.66,1.1h0a1.82,1.82,0,0,0,.92,2.39,1.11,1.11,0,0,0,.74.18,1.77,1.77,0,0,0,1.66-1.1h0a1.82,1.82,0,0,0-.92-2.39,0.89,0.89,0,0,0-.74-0.18h0Zm3.49-8.46a1.77,1.77,0,0,0-1.66,1.29h0a1.91,1.91,0,0,0,1.1,2.39c0.18,0,.37.18,0.55,0.18a1.77,1.77,0,0,0,1.66-1.29h0a1.91,1.91,0,0,0-1.1-2.39,0.68,0.68,0,0,0-.55-0.18h0Zm2.39-8.64a1.79,1.79,0,0,0-1.84,1.47v0.18a1.86,1.86,0,0,0,1.47,2.21h0.37a1.79,1.79,0,0,0,1.84-1.47h0a1.86,1.86,0,0,0-1.47-2.21,0.37,0.37,0,0,0-.37-0.18h0Zm1.47-9a2,2,0,0,0-1.84,1.66V93.5a1.83,1.83,0,0,0,1.66,2H165a2,2,0,0,0,1.84-1.66h0a1.83,1.83,0,0,0-1.66-2,0.18,0.18,0,0,0-.18-0.18h0Zm0.37-9h0a1.84,1.84,0,0,0-1.84,1.84v0.18a1.84,1.84,0,0,0,1.84,1.84h0a1.84,1.84,0,0,0,1.84-1.84V84.49a1.84,1.84,0,0,0-1.84-1.84h0Zm-0.55-9h-0.18a2.15,2.15,0,0,0-1.66,2v0.18a2,2,0,0,0,1.84,1.66H165a2.15,2.15,0,0,0,1.66-2h0a1.84,1.84,0,0,0-1.84-1.84h0Zm-1.47-8.83H163A1.75,1.75,0,0,0,161.73,67V67.2a1.79,1.79,0,0,0,1.84,1.47h0.37a1.75,1.75,0,0,0,1.29-2.21V66.28a2.11,2.11,0,0,0-1.84-1.47h0Zm-2.57-8.64a0.68,0.68,0,0,0-.55.18,1.91,1.91,0,0,0-1.1,2.39h0A1.77,1.77,0,0,0,160.81,60a0.68,0.68,0,0,0,.55-0.18,1.91,1.91,0,0,0,1.1-2.39V57.27a1.61,1.61,0,0,0-1.66-1.1h0Zm-3.49-8.28a1.11,1.11,0,0,0-.74.18,1.82,1.82,0,0,0-.92,2.39h0a1.77,1.77,0,0,0,1.66,1.1,1.11,1.11,0,0,0,.74-0.18A1.82,1.82,0,0,0,159,49h0a2,2,0,0,0-1.66-1.1h0ZM152.9,40a1.4,1.4,0,0,0-.92.37,1.81,1.81,0,0,0-.55,2.57h0a1.88,1.88,0,0,0,1.47.92,1.4,1.4,0,0,0,.92-0.37,1.81,1.81,0,0,0,.55-2.57h0A1.51,1.51,0,0,0,152.9,40h0Zm-5.33-7.36a2.61,2.61,0,0,0-1.1.37,1.78,1.78,0,0,0-.18,2.57h0a2.27,2.27,0,0,0,1.47.74,2.61,2.61,0,0,0,1.1-.37,1.78,1.78,0,0,0,.18-2.57h0a1.67,1.67,0,0,0-1.47-.74h0ZM141.5,26a1.67,1.67,0,0,0-1.29.55,1.78,1.78,0,0,0,0,2.57h0a1.78,1.78,0,0,0,2.57,0,1.78,1.78,0,0,0,0-2.57h0A1.67,1.67,0,0,0,141.5,26h0Zm-6.8-6.07a1.67,1.67,0,0,0-1.47.74,1.8,1.8,0,0,0,.37,2.57h0a2.61,2.61,0,0,0,1.1.37,1.67,1.67,0,0,0,1.47-.74,1.8,1.8,0,0,0-.37-2.57h0a2,2,0,0,0-1.1-.37h0Zm-7.36-5.15a1.64,1.64,0,0,0-1.47.92,2,2,0,0,0,.55,2.57h0a1.66,1.66,0,0,0,.92.18,1.64,1.64,0,0,0,1.47-.92,2,2,0,0,0-.55-2.57h0a1.38,1.38,0,0,0-.92-0.18h0Zm-7.91-4.23a1.77,1.77,0,0,0-1.66,1.1,1.82,1.82,0,0,0,.92,2.39h0a1.11,1.11,0,0,0,.74.18,1.77,1.77,0,0,0,1.66-1.1,1.82,1.82,0,0,0-.92-2.39h0a1.11,1.11,0,0,0-.74-0.18h0ZM111,7.06a1.77,1.77,0,0,0-1.66,1.29,1.91,1.91,0,0,0,1.1,2.39h0c0.18,0,.37.18,0.55,0.18a1.77,1.77,0,0,0,1.66-1.29,1.91,1.91,0,0,0-1.1-2.39h0A0.68,0.68,0,0,0,111,7.06h0Zm-8.64-2.39a1.79,1.79,0,0,0-1.84,1.47A1.86,1.86,0,0,0,102,8.35h0.55a1.79,1.79,0,0,0,1.84-1.47,1.86,1.86,0,0,0-1.47-2.21h-0.55ZM93.5,3.2a2,2,0,0,0-1.84,1.66,1.83,1.83,0,0,0,1.66,2h0.37a2,2,0,0,0,1.84-1.66,1.83,1.83,0,0,0-1.66-2H93.5Z"/><path class="cls-2" d="M76.17,27.92a6.76,6.76,0,0,1,.07-1.26c2.37,0.06,7.51,2,14.93,7.16a31.16,31.16,0,0,1-6.51,5.93,53.78,53.78,0,0,1-19.23,7.91C71.14,43.14,76.35,37.51,76.17,27.92Zm-20.24,27C81,52.69,92.1,42,95.83,37.25a117.6,117.6,0,0,1,9.66,8.39,53.71,53.71,0,0,1-17.1,16.14A87.22,87.22,0,0,1,67.15,71,120.54,120.54,0,0,1,44,75.26,32.4,32.4,0,0,1,55.94,54.91ZM43.2,83.17c0-.71.06-1.4,0.1-2.08a123.58,123.58,0,0,0,25.32-4.57,93,93,0,0,0,22.72-9.8,60,60,0,0,0,18.25-16.86,52.72,52.72,0,0,1,4.66,5.81,62.77,62.77,0,0,1,5.13,9.11A87.34,87.34,0,0,1,96.81,84.07,108.71,108.71,0,0,1,72.61,94.7a114.26,114.26,0,0,1-26.74,4.93A40.67,40.67,0,0,1,43.2,83.17Zm76.28,20.24a42.72,42.72,0,0,1-9.18,12,33.64,33.64,0,0,1-14.76,7.44,59.93,59.93,0,0,1-14.23,1.67c-2.31,0-4-.13-4.59-0.19-0.33-.07-1-0.23-1.85-0.49A132.89,132.89,0,0,0,95,117.43a102.64,102.64,0,0,0,19.18-10.25c2.07-1.43,3.89-2.8,5.47-4.11Zm4-12.16c-1.45,2-5.79,6.59-12.84,11.38-8.37,5.71-23,13.33-45.35,17.27a50.23,50.23,0,0,1-5.78-3.52,39.15,39.15,0,0,1-10.77-11.15,124,124,0,0,0,25.41-5,114.51,114.51,0,0,0,25.56-11.2,93.75,93.75,0,0,0,22.06-18.15,44.74,44.74,0,0,1,2,18.13C123.67,89.78,123.56,90.52,123.45,91.25Z"/><path class="cls-3" d="M76.73,130.38h0a26.3,26.3,0,0,0,19.21,0h0l-6.28,19.45a3.49,3.49,0,0,1-6.64,0Z"/></svg>