<svg id="Layer_1" data-name="Layer 1" xmlns="http://www.w3.org/2000/svg" viewBox="0 0 170.08 170.08"><defs><style>.cls-1{fill:none;stroke:#ee4c75;stroke-miterlimit:10;stroke-width:3px;}.cls-2{fill:#5700ff;}.cls-3{fill:#ee4c75;}</style></defs><title>CIApage-icons</title><path class="cls-1" d="M123.51,61.22a45.25,45.25,0,0,0-76.95,0H2.83v47.63H46.57a45.25,45.25,0,0,0,76.95,0h43.73V61.22H123.51Z"/><path class="cls-2" d="M79.85,56.72c-16.78,5-14.32,27.6-13,35.12a16.83,16.83,0,0,0,1.1,3.63c1.75,4.54-2.85,8.1-4.47,9.72a2.15,2.15,0,0,0-.39,2.2,5.78,5.78,0,0,0,5.05,3.76c11.6,1.1,12.44-4.47,11.53-8.68a14.52,14.52,0,0,0-2.72-5.7c-7.58-9.65-5-18.4-5-18.4C78.36,79,85,79.13,85,79.13s6.67-.06,13.09-0.78c0,0,2.59,8.81-5.05,18.53a14.52,14.52,0,0,0-2.72,5.7c-0.91,4.15-.06,9.72,11.53,8.62a5.78,5.78,0,0,0,5.05-3.76,1.79,1.79,0,0,0-.39-2.2c-1.62-1.62-6.22-5.25-4.47-9.72a18,18,0,0,0,1.1-3.63c1.3-7.52,3.76-30.13-13-35.12A18,18,0,0,0,79.85,56.72Z"/><path class="cls-3" d="M11.13,101.91a1,1,0,0,1-.68.28,1,1,0,0,1-.68-0.28,1,1,0,0,1-.28-0.68,0.94,0.94,0,0,1,1.63-.66,0.89,0.89,0,0,1,.28.66A1,1,0,0,1,11.13,101.91Z"/><path class="cls-3" d="M10.46,97.56a1,1,0,0,1-1-1,0.94,0.94,0,0,1,1-1,1,1,0,0,1,1,1A1,1,0,0,1,10.46,97.56Z"/><path class="cls-3" d="M10.46,92.94a1,1,0,0,1-1-1,0.94,0.94,0,0,1,1-1,1,1,0,0,1,1,1A1,1,0,0,1,10.46,92.94Z"/><path class="cls-3" d="M10.46,88.3a0.94,0.94,0,0,1-1-1,1,1,0,0,1,1-1,1,1,0,0,1,1,1A1,1,0,0,1,10.46,88.3Z"/><path class="cls-3" d="M10.46,83.67a0.94,0.94,0,0,1-1-1,1,1,0,0,1,1-1,1,1,0,0,1,1,1A1,1,0,0,1,10.46,83.67Z"/><path class="cls-3" d="M10.46,79a0.94,0.94,0,0,1-1-1,1,1,0,0,1,1-1,1,1,0,0,1,1,1A1,1,0,0,1,10.46,79Z"/><path class="cls-3" d="M10.46,74.42a1,1,0,1,1,0-1.91A1,1,0,1,1,10.46,74.42Z"/><path class="cls-3" d="M11.13,69.52a1,1,0,0,1-.68.28,0.92,0.92,0,0,1-.68-0.28,0.94,0.94,0,0,1-.28-0.68,1,1,0,0,1,.28-0.68,1,1,0,0,1,1.63.68A1,1,0,0,1,11.13,69.52Z"/><circle class="cls-3" cx="14.89" cy="68.85" r="0.95"/><path class="cls-3" d="M15,102.19a1,1,0,1,1,0-1.91A1,1,0,1,1,15,102.19Z"/><path class="cls-3" d="M19.33,67.89a1,1,0,1,1,0,1.91A1,1,0,1,1,19.33,67.89Z"/><path class="cls-3" d="M19.4,102.19a1,1,0,1,1,0-1.91A1,1,0,1,1,19.4,102.19Z"/><path class="cls-3" d="M23.76,67.89a1,1,0,1,1,0,1.91A1,1,0,1,1,23.76,67.89Z"/><path class="cls-3" d="M23.85,102.19a1,1,0,1,1,0-1.91A1,1,0,1,1,23.85,102.19Z"/><path class="cls-3" d="M28.21,67.89a1,1,0,1,1,0,1.91A1,1,0,1,1,28.21,67.89Z"/><path class="cls-3" d="M28.28,102.19a1,1,0,0,1,0-1.91A1,1,0,0,1,28.28,102.19Z"/><path class="cls-3" d="M32.65,67.89a1,1,0,1,1,0,1.91A1,1,0,0,1,32.65,67.89Z"/><circle class="cls-3" cx="32.71" cy="101.23" r="0.95"/><circle class="cls-3" cx="37.08" cy="68.85" r="0.95"/><path class="cls-3" d="M37.15,102.19a1,1,0,0,1,0-1.91A1,1,0,0,1,37.15,102.19Z"/><circle class="cls-3" cx="41.51" cy="68.85" r="0.95"/><path class="cls-3" d="M41.58,102.19a1,1,0,0,1,0-1.91A1,1,0,0,1,41.58,102.19Z"/><path class="cls-3" d="M45.95,67.89a1,1,0,0,1,0,1.91A1,1,0,0,1,45.95,67.89Z"/><path class="cls-3" d="M46,102.19a1,1,0,1,1,.94-1A0.95,0.95,0,0,1,46,102.19Z"/><path class="cls-3" d="M49.78,67.08a1,1,0,0,1,1.3.36,1,1,0,0,1-.38,1.3,0.94,0.94,0,0,1-.47.12,1,1,0,0,1-.83-0.5A0.94,0.94,0,0,1,49.78,67.08Z"/><path class="cls-3" d="M51.13,102.67a1,1,0,1,1-.36-1.3A1,1,0,0,1,51.13,102.67Z"/><path class="cls-3" d="M52.51,64.29a1,1,0,0,1,1.61,1,0.94,0.94,0,0,1-.8.45,0.92,0.92,0,0,1-.52-0.16A1,1,0,0,1,52.51,64.29Z"/><path class="cls-3" d="M53.88,106.14a1,1,0,0,1-.52.16,1,1,0,1,1,.8-1.47A1,1,0,0,1,53.88,106.14Z"/><path class="cls-3" d="M55.18,60.6a1,1,0,0,1,1.35-.14,1,1,0,0,1,.12,1.35,0.92,0.92,0,0,1-.73.35A1,1,0,0,1,55.18,60.6Z"/><path class="cls-3" d="M56.56,109.67a1,1,0,0,1-1.33-.14,1,1,0,0,1,1.47-1.21A1,1,0,0,1,56.56,109.67Z"/><path class="cls-3" d="M58.26,57.26a0.95,0.95,0,0,1,1.32,1.37,1,1,0,0,1-.66.26,1,1,0,0,1-.69-0.28A1,1,0,0,1,58.26,57.26Z"/><path class="cls-3" d="M59.65,112.86a0.92,0.92,0,0,1-.68.28,0.93,0.93,0,0,1-.66-0.26,0.95,0.95,0,1,1,1.32-1.37A0.94,0.94,0,0,1,59.65,112.86Z"/><path class="cls-3" d="M61.71,54.3a0.94,0.94,0,0,1,1.33.17,1,1,0,0,1-.19,1.33,0.88,0.88,0,0,1-.57.19,1,1,0,0,1-.76-0.36A1,1,0,0,1,61.71,54.3Z"/><path class="cls-3" d="M63.09,115.65a1,1,0,0,1-.76.38,1,1,0,0,1-.57-0.19A1,1,0,1,1,63.09,115.65Z"/><path class="cls-3" d="M65.48,51.75a1,1,0,0,1,1.3.35,0.94,0.94,0,0,1-.35,1.3,0.92,0.92,0,0,1-.47.14,1,1,0,0,1-.83-0.47A1,1,0,0,1,65.48,51.75Z"/><path class="cls-3" d="M66.84,118a0.94,0.94,0,0,1-.81.47,0.95,0.95,0,0,1-.83-1.44,1,1,0,0,1,1.32-.33A0.93,0.93,0,0,1,66.84,118Z"/><path class="cls-3" d="M69.54,49.69a1,1,0,0,1,1.25.48,1,1,0,0,1-.48,1.26,1,1,0,0,1-.38.07A0.95,0.95,0,0,1,69.54,49.69Z"/><path class="cls-3" d="M70.85,119.92a1,1,0,0,1-.88.57,1,1,0,0,1-.38-0.07,1,1,0,0,1,.76-1.75A0.94,0.94,0,0,1,70.85,119.92Z"/><path class="cls-3" d="M73.8,48.11a1,1,0,0,1,1.18.64,0.94,0.94,0,0,1-.62,1.18,0.86,0.86,0,0,1-.28.05A1,1,0,0,1,73.8,48.11Z"/><path class="cls-3" d="M75,121.34a1,1,0,0,1-.92.68,0.67,0.67,0,0,1-.26,0,1,1,0,0,1-.64-1.18A0.95,0.95,0,0,1,75,121.34Z"/><path class="cls-3" d="M78.22,47.06a1,1,0,0,1,1.11.78,1,1,0,0,1-.78,1.09,0.48,0.48,0,0,1-.16,0,0.92,0.92,0,0,1-.94-0.78A0.94,0.94,0,0,1,78.22,47.06Z"/><path class="cls-3" d="M78.46,123H78.28a1,1,0,1,1,1.11-.78A0.94,0.94,0,0,1,78.46,123Z"/><path class="cls-3" d="M82.74,46.52v0a1,1,0,0,1,1,.88,1,1,0,0,1-.9,1H82.79A1,1,0,0,1,82.74,46.52Z"/><path class="cls-3" d="M82.86,123.56H82.81a1,1,0,0,1-.9-1,1,1,0,1,1,1.91.1A1,1,0,0,1,82.86,123.56Z"/><path class="cls-3" d="M87.27,46.52a1,1,0,0,1,.9,1,1,1,0,0,1-1,.9H87.17a1,1,0,0,1-.9-1A1,1,0,0,1,87.27,46.52Z"/><path class="cls-3" d="M87.34,123.54v0H87.29a1,1,0,0,1-1-.9,0.93,0.93,0,0,1,.9-1,1,1,0,0,1,1,.88A0.93,0.93,0,0,1,87.34,123.54Z"/><path class="cls-3" d="M91.79,47a1,1,0,0,1,.76,1.11,0.93,0.93,0,0,1-.94.78H91.46A1,1,0,1,1,91.79,47Z"/><path class="cls-3" d="M91.86,123a0.58,0.58,0,0,1-.17,0,1,1,0,0,1-.94-0.8,0.94,0.94,0,0,1,.78-1.09,0.92,0.92,0,0,1,1.09.76A0.94,0.94,0,0,1,91.86,123Z"/><path class="cls-3" d="M95,48.74a0.95,0.95,0,1,1,1.82.54,1,1,0,0,1-.92.69,0.69,0.69,0,0,1-.26-0.05A0.93,0.93,0,0,1,95,48.74Z"/><path class="cls-3" d="M96.28,122a0.73,0.73,0,0,1-.28,0,0.95,0.95,0,0,1-.28-1.86,1,1,0,0,1,1.19.62A1,1,0,0,1,96.28,122Z"/><path class="cls-3" d="M99.22,50.16a1,1,0,1,1,1.75.74A1,1,0,1,1,99.22,50.16Z"/><path class="cls-3" d="M100.54,120.39a1,1,0,0,1-.38.09,0.94,0.94,0,0,1-.87-0.57,1,1,0,1,1,1.75-.76A1,1,0,0,1,100.54,120.39Z"/><path class="cls-3" d="M103.23,52.06a1,1,0,1,1,1.65,1,1,1,0,0,1-.82.47,1,1,0,0,1-.48-0.14A1,1,0,0,1,103.23,52.06Z"/><path class="cls-3" d="M104.59,118.33a0.92,0.92,0,0,1-.48.12,1,1,0,0,1-.81-0.47,1,1,0,0,1,1.65-1A1,1,0,0,1,104.59,118.33Z"/><path class="cls-3" d="M107,54.44a1,1,0,0,1,1.33-.19,1,1,0,0,1,.19,1.33,1,1,0,0,1-.76.38,1,1,0,0,1-.59-0.19A0.94,0.94,0,0,1,107,54.44Z"/><path class="cls-3" d="M108.37,115.78a0.93,0.93,0,0,1-.57.21,1,1,0,0,1-.76-0.38,1,1,0,0,1,1.52-1.16A1,1,0,0,1,108.37,115.78Z"/><path class="cls-3" d="M110.41,57.22a1,1,0,0,1,1.39,1.33,1,1,0,0,1-.69.29A1,1,0,0,1,110.41,57.22Z"/><path class="cls-3" d="M111.82,112.82a1,1,0,0,1-.66.28,1,1,0,0,1-.66-1.65,1,1,0,0,1,1.35,0A1,1,0,0,1,111.82,112.82Z"/><path class="cls-3" d="M113.51,60.41a0.95,0.95,0,1,1,1.2,1.47,0.88,0.88,0,0,1-.61.23,1,1,0,0,1-.73-0.35A1,1,0,0,1,113.51,60.41Z"/><path class="cls-3" d="M114.9,109.48a1,1,0,0,1-.75.35,1,1,0,0,1-.61-0.21,1,1,0,0,1,1.21-1.49A1,1,0,0,1,114.9,109.48Z"/><path class="cls-3" d="M116.2,63.94a1,1,0,0,1,1.32.28,1,1,0,0,1-.28,1.32,1,1,0,0,1-.52.16,0.92,0.92,0,0,1-.8-0.45A0.93,0.93,0,0,1,116.2,63.94Z"/><path class="cls-3" d="M117.57,105.79a1,1,0,0,1-.82.43,0.88,0.88,0,0,1-.5-0.14,1,1,0,1,1,1-1.61A1,1,0,0,1,117.57,105.79Z"/><path class="cls-3" d="M119,67.41a0.94,0.94,0,0,1,1.3-.36,1,1,0,0,1-.47,1.78,1.11,1.11,0,0,1-.47-0.12A1,1,0,0,1,119,67.41Z"/><path class="cls-3" d="M120.3,103a0.83,0.83,0,0,1-.45.12,1,1,0,0,1-.85-0.48,1,1,0,0,1,.38-1.3A0.95,0.95,0,1,1,120.3,103Z"/><path class="cls-3" d="M124,67.89a1,1,0,1,1,0,1.91A1,1,0,1,1,124,67.89Z"/><path class="cls-3" d="M124.11,102.19a1,1,0,1,1,1-1A0.95,0.95,0,0,1,124.11,102.19Z"/><path class="cls-3" d="M128.48,67.89a1,1,0,1,1-1,1A1,1,0,0,1,128.48,67.89Z"/><path class="cls-3" d="M128.57,102.19a1,1,0,1,1,0-1.91A1,1,0,1,1,128.57,102.19Z"/><path class="cls-3" d="M132.93,67.89a1,1,0,1,1-1,1A0.95,0.95,0,0,1,132.93,67.89Z"/><circle class="cls-3" cx="133" cy="101.23" r="0.95"/><path class="cls-3" d="M137.36,67.89a1,1,0,1,1,0,1.91A1,1,0,1,1,137.36,67.89Z"/><circle class="cls-3" cx="137.43" cy="101.23" r="0.95"/><circle class="cls-3" cx="141.8" cy="68.85" r="0.95"/><path class="cls-3" d="M141.87,102.19a1,1,0,1,1,0-1.91A1,1,0,1,1,141.87,102.19Z"/><path class="cls-3" d="M146.23,67.89a1,1,0,1,1,0,1.91A1,1,0,1,1,146.23,67.89Z"/><path class="cls-3" d="M146.3,102.19a1,1,0,1,1,1-1A1,1,0,0,1,146.3,102.19Z"/><path class="cls-3" d="M150.68,67.89a1,1,0,0,1,0,1.91A1,1,0,1,1,150.68,67.89Z"/><path class="cls-3" d="M150.75,102.19a1,1,0,1,1,0-1.91A1,1,0,1,1,150.75,102.19Z"/><path class="cls-3" d="M155.12,67.89a1,1,0,1,1-1,1A1,1,0,0,1,155.12,67.89Z"/><path class="cls-3" d="M155.19,102.19a1,1,0,1,1,0-1.91A1,1,0,1,1,155.19,102.19Z"/><path class="cls-3" d="M160.3,101.91a1,1,0,0,1-.68.28,1,1,0,0,1-.68-0.28,1,1,0,0,1-.28-0.68,1,1,0,0,1,.28-0.68,1,1,0,0,1,1.35,0A1,1,0,0,1,160.3,101.91Z"/><path class="cls-3" d="M159.62,97.56a1,1,0,0,1-1-1,1,1,0,0,1,1.91,0A1,1,0,0,1,159.62,97.56Z"/><path class="cls-3" d="M159.62,92.94a1,1,0,1,1,1-1A1,1,0,0,1,159.62,92.94Z"/><path class="cls-3" d="M159.62,88.3a1,1,0,0,1-1-1A1,1,0,1,1,159.62,88.3Z"/><path class="cls-3" d="M159.62,83.67a1,1,0,0,1-1-1A1,1,0,1,1,159.62,83.67Z"/><path class="cls-3" d="M159.62,79a1,1,0,0,1-1-1A1,1,0,1,1,159.62,79Z"/><path class="cls-3" d="M159.62,74.42a1,1,0,0,1-1-1A1,1,0,1,1,159.62,74.42Z"/><path class="cls-3" d="M160.3,69.52a1,1,0,0,1-.68.28,1,1,0,0,1-.68-0.28,1,1,0,0,1-.28-0.68,0.93,0.93,0,0,1,.26-0.66,1,1,0,0,1,1.37,0A1,1,0,0,1,160.3,69.52Z"/></svg>