<svg id="Layer_1" data-name="Layer 1" xmlns="http://www.w3.org/2000/svg" viewBox="0 0 125.71 205.88"><defs><style>.cls-1{fill:none;stroke:#fff;stroke-linecap:round;stroke-linejoin:round;stroke-width:5.56px;}</style></defs><title>touchindex</title><path class="cls-1" d="M118.6,89.95V64.62a55.87,55.87,0,0,0-111.73,0"/><path class="cls-1" d="M7.11,81c10,0,15.3-8.11,15.3-18.08,0-20.71,19.63-37.55,40.33-37.55s43.11,16.85,43.11,37.55V90c0,10.23,2.76,18.54,13,18.54"/><path class="cls-1" d="M118.84,128c-13.29,0-26.89-10.81-26.89-24.11V76.82c0-17.64-11.57-32-29.21-32s-29.21,14.35-29.21,32c0,13-13.39,23.64-26.43,23.64"/><path class="cls-1" d="M8.7,150.54c38.23,0,72.12-31.1,72.12-69.33a17,17,0,1,0-34,0c0,19.48-20.22,35.32-39.7,35.32"/><path class="cls-1" d="M63.1,80.85c0,30.88-23.52,53-54.4,53"/><path class="cls-1" d="M80.82,124.91a46.29,46.29,0,0,0,38,19.82"/><path class="cls-1" d="M94.61,188.2A79.22,79.22,0,0,1,70,175.27a4.16,4.16,0,0,0-4.82-.21,107.5,107.5,0,0,1-32.46,14"/><path class="cls-1" d="M106.63,177a65.71,65.71,0,0,1-31.38-15.37l-1.56-1.47a4.05,4.05,0,0,0-.46-0.38,9.17,9.17,0,0,0-9.35-.7,4.5,4.5,0,0,0-.6.37l-2,1.49a92.32,92.32,0,0,1-41.72,16.57"/><path class="cls-1" d="M114.25,164a51.38,51.38,0,0,1-29.67-12.71,22.46,22.46,0,0,0-1.85-1.74l-0.21-.19-0.26-.18-0.2-.14a23.46,23.46,0,0,0-25.65-1.71l-0.25.13-0.21.11-0.31.21-2.65,2a78.81,78.81,0,0,1-41.5,14.54"/><path class="cls-1" d="M71.69,196.35a52.19,52.19,0,0,1-9,.77"/></svg>